<svg width="76" height="78" viewBox="0 0 76 78" fill="none" xmlns="http://www.w3.org/2000/svg">
<g filter="url(#filter0_d_114_712)">
<path d="M12.7279 54.228L12.7279 42.6104L42.6104 12.7279L50.7279 12.7279L57.2279 12.7279L68.0662 12.7279L12.7279 68.0662L12.7279 63.7279L12.7279 54.228Z" fill="url(#paint0_linear_114_712)"/>
</g>
<path d="M16.2594 49.7024L17.6062 51.0493L19.3058 49.3497L20.001 50.045L18.3015 51.7445L19.6752 53.1183L21.8315 50.9619L22.5537 51.6841L19.4905 54.7473L14.6337 49.8905L17.6969 46.8273L18.4157 47.5461L16.2594 49.7024Z" fill="#362A0B"/>
<path d="M27.3009 46.9368L26.4008 47.837C26.3381 47.8997 26.272 47.9344 26.2026 47.9411C26.1354 47.9456 26.0705 47.9389 26.0078 47.921L23.0185 47.182C23.0566 47.2559 23.0834 47.3253 23.0991 47.3903L23.7406 50.1881C23.7518 50.2531 23.7563 50.3202 23.7541 50.3896C23.7518 50.4546 23.7227 50.515 23.6667 50.571L22.8237 51.4141L21.937 47.3029L18.0307 46.4935L18.9309 45.5933C18.9936 45.5306 19.0473 45.4948 19.0921 45.4859C19.1369 45.4724 19.1906 45.4724 19.2533 45.4859L22.1385 46.161C22.1049 46.0826 22.0758 45.9997 22.0512 45.9124L21.4701 43.3027C21.4522 43.2355 21.4477 43.1773 21.4567 43.128C21.4656 43.0787 21.4925 43.0317 21.5373 42.9869L22.4005 42.1237L23.1596 46.0065L27.3009 46.9368Z" fill="#362A0B"/>
<path d="M29.8674 42.0797C29.9166 42.0304 29.9793 42.0058 30.0555 42.0058L30.7977 42.036C30.8448 42.4772 30.7888 42.9071 30.6298 43.3258C30.4731 43.7423 30.1932 44.1521 29.7901 44.5551C29.4296 44.9156 29.0434 45.1787 28.6313 45.3444C28.2216 45.5079 27.8051 45.5818 27.3819 45.5661C26.9587 45.5504 26.54 45.4452 26.1257 45.2504C25.7137 45.0533 25.3275 44.7745 24.9669 44.414C24.602 44.0491 24.3265 43.6572 24.1407 43.2385C23.9526 42.8175 23.8541 42.3921 23.8451 41.9621C23.8384 41.53 23.9213 41.1068 24.0937 40.6925C24.2638 40.2761 24.5269 39.8898 24.883 39.5338C25.2368 39.18 25.6085 38.9247 25.9981 38.768C26.3899 38.609 26.7762 38.5273 27.1569 38.5228L27.2744 39.2449C27.2834 39.2897 27.2834 39.3367 27.2744 39.386C27.2677 39.433 27.2397 39.4811 27.1904 39.5304C27.1569 39.564 27.1132 39.5897 27.0595 39.6077C27.0035 39.6233 26.9408 39.639 26.8714 39.6547C26.7997 39.6681 26.7191 39.686 26.6295 39.7084C26.54 39.7308 26.4448 39.7655 26.344 39.8125C26.241 39.8573 26.1313 39.92 26.0149 40.0006C25.8984 40.0768 25.7764 40.1786 25.6488 40.3063C25.4316 40.5235 25.2715 40.762 25.1685 41.0217C25.0655 41.277 25.0229 41.5434 25.0408 41.8211C25.0565 42.0965 25.1349 42.3764 25.276 42.6608C25.4148 42.9429 25.6197 43.2194 25.8906 43.4904C26.1638 43.7636 26.4448 43.9684 26.7337 44.105C27.0247 44.2394 27.3091 44.3133 27.5868 44.3267C27.8644 44.3401 28.132 44.2965 28.3895 44.1957C28.6448 44.0927 28.8754 43.9382 29.0814 43.7322C29.2046 43.6091 29.3087 43.4915 29.3938 43.3795C29.4811 43.2653 29.5516 43.1523 29.6054 43.0403C29.6614 42.9261 29.7039 42.8097 29.733 42.691C29.7621 42.5678 29.78 42.4357 29.7868 42.2947C29.789 42.2521 29.7968 42.2129 29.8103 42.1771C29.8215 42.139 29.8405 42.1066 29.8674 42.0797Z" fill="#362A0B"/>
<path d="M34.2179 38.5286L34.9635 39.2743L32.1186 42.1191L27.2619 37.2624L28.1654 36.3588L32.2765 40.47L34.2179 38.5286Z" fill="#362A0B"/>
<path d="M36.7033 36.0767C36.878 35.9021 37.0045 35.7173 37.0829 35.5225C37.1635 35.3255 37.1982 35.1273 37.187 34.928C37.1758 34.7287 37.1198 34.5294 37.0191 34.3302C36.9205 34.1286 36.7783 33.9349 36.5925 33.7491L33.6838 30.8404L34.5873 29.9369L37.496 32.8456C37.7849 33.1344 38.0054 33.449 38.1577 33.7894C38.3099 34.1253 38.3883 34.4701 38.3928 34.8239C38.3973 35.1732 38.3256 35.5225 38.1778 35.8718C38.0278 36.2189 37.7972 36.5481 37.4859 36.8593C37.1724 37.1728 36.8422 37.4045 36.4951 37.5546C36.1458 37.7024 35.7953 37.7751 35.4438 37.7729C35.0923 37.7662 34.7474 37.6878 34.4093 37.5378C34.0712 37.3833 33.7577 37.1616 33.4689 36.8727L30.5602 33.9641L31.4637 33.0605L34.369 35.9659C34.5548 36.1517 34.7474 36.295 34.9467 36.3958C35.1482 36.4943 35.3498 36.5503 35.5513 36.5637C35.7528 36.5727 35.951 36.538 36.1458 36.4596C36.3428 36.379 36.5287 36.2514 36.7033 36.0767Z" fill="#362A0B"/>
<path d="M39.0759 27.2151C39.096 27.2889 39.1016 27.3528 39.0927 27.4065C39.0837 27.4558 39.0568 27.5028 39.0121 27.5476C38.965 27.5946 38.8967 27.6293 38.8072 27.6517C38.7176 27.6696 38.6135 27.6954 38.4948 27.7289C38.3761 27.7625 38.2485 27.814 38.1119 27.8834C37.9753 27.9484 37.8376 28.0503 37.6988 28.1891C37.5734 28.3145 37.4793 28.4399 37.4167 28.5653C37.3517 28.6884 37.3136 28.8093 37.3025 28.928C37.2935 29.0445 37.3114 29.1564 37.3562 29.2639C37.3987 29.3691 37.4648 29.4665 37.5544 29.5561C37.6686 29.6703 37.7951 29.7341 37.9339 29.7476C38.075 29.7588 38.225 29.7386 38.384 29.6871C38.543 29.6356 38.7109 29.5639 38.8878 29.4721C39.0647 29.3803 39.2483 29.2885 39.4386 29.1967C39.6267 29.1027 39.8204 29.0209 40.0197 28.9515C40.2167 28.8799 40.4171 28.8407 40.6209 28.834C40.8224 28.825 41.0251 28.8597 41.2288 28.9381C41.4348 29.0142 41.6386 29.1531 41.8401 29.3546C42.0596 29.574 42.2275 29.8181 42.3439 30.0868C42.4604 30.351 42.5175 30.6276 42.5152 30.9164C42.513 31.2008 42.4492 31.4885 42.3238 31.7796C42.1962 32.0685 41.998 32.3472 41.7293 32.6159C41.5748 32.7704 41.4069 32.907 41.2255 33.0257C41.0463 33.1466 40.8594 33.2485 40.6646 33.3314C40.472 33.412 40.2761 33.4735 40.0768 33.5161C39.8775 33.5586 39.6827 33.5788 39.4924 33.5765L39.3244 32.8779C39.3155 32.8242 39.3188 32.7693 39.3345 32.7133C39.3479 32.6551 39.3748 32.6059 39.4151 32.5656C39.4711 32.5096 39.5551 32.4726 39.667 32.4547C39.7767 32.4346 39.9044 32.4077 40.0499 32.3741C40.1955 32.3405 40.3511 32.2879 40.5168 32.2162C40.6825 32.1401 40.8493 32.0181 41.0172 31.8501C41.2747 31.5926 41.4136 31.3329 41.4337 31.0709C41.4516 30.8067 41.3464 30.5604 41.118 30.332C40.9904 30.2043 40.8538 30.1327 40.7082 30.117C40.5649 30.0991 40.4138 30.1159 40.2548 30.1674C40.0936 30.2167 39.9268 30.2894 39.7543 30.3857C39.5819 30.482 39.4039 30.5772 39.2203 30.6712C39.0367 30.7653 38.8464 30.8481 38.6493 30.9198C38.4523 30.9914 38.2507 31.0295 38.0447 31.034C37.8387 31.0384 37.6283 30.9981 37.4133 30.913C37.1983 30.8235 36.98 30.6679 36.7583 30.4462C36.5814 30.2693 36.4437 30.0622 36.3452 29.8248C36.2489 29.5852 36.203 29.3333 36.2075 29.0691C36.212 28.8049 36.2736 28.535 36.3922 28.2596C36.5109 27.9842 36.6979 27.7189 36.9531 27.4636C37.2398 27.177 37.5488 26.9575 37.8802 26.8053C38.2116 26.653 38.543 26.5724 38.8744 26.5635L39.0759 27.2151Z" fill="#362A0B"/>
<path d="M45.0567 29.1811L44.1498 30.0879L39.293 25.2312L40.1999 24.3243L45.0567 29.1811Z" fill="#362A0B"/>
<path d="M45.4488 19.0754L48.3441 25.8937L47.5279 26.7099L40.7096 23.8146L41.4351 23.0891C41.5135 23.0108 41.5963 22.966 41.6836 22.9548C41.771 22.9436 41.8572 22.9559 41.9423 22.9917L46.05 24.8088C46.1844 24.867 46.3266 24.9376 46.4766 25.0204C46.6266 25.0988 46.78 25.185 46.9367 25.279C46.8382 25.1268 46.7475 24.9779 46.6647 24.8323C46.5796 24.6845 46.5079 24.5435 46.4497 24.4091L44.6259 20.3081C44.5923 20.2387 44.58 20.1569 44.589 20.0629C44.6002 19.9666 44.6438 19.8804 44.72 19.8043L45.4488 19.0754Z" fill="#362A0B"/>
<path d="M47.5772 18.3846L48.924 19.7315L50.6235 18.0319L51.3188 18.7272L49.6193 20.4267L50.993 21.8005L53.1493 19.6442L53.8715 20.3663L50.8083 23.4295L45.9515 18.5727L49.0147 15.5095L49.7335 16.2283L47.5772 18.3846Z" fill="#362A0B"/>
<defs>
<filter id="filter0_d_114_712" x="9.72791" y="11.7279" width="65.3383" height="65.3383" filterUnits="userSpaceOnUse" color-interpolation-filters="sRGB">
<feFlood flood-opacity="0" result="BackgroundImageFix"/>
<feColorMatrix in="SourceAlpha" type="matrix" values="0 0 0 0 0 0 0 0 0 0 0 0 0 0 0 0 0 0 127 0" result="hardAlpha"/>
<feOffset dx="2" dy="4"/>
<feGaussianBlur stdDeviation="2.5"/>
<feComposite in2="hardAlpha" operator="out"/>
<feColorMatrix type="matrix" values="0 0 0 0 0 0 0 0 0 0 0 0 0 0 0 0 0 0 0.2 0"/>
<feBlend mode="normal" in2="BackgroundImageFix" result="effect1_dropShadow_114_712"/>
<feBlend mode="normal" in="SourceGraphic" in2="effect1_dropShadow_114_712" result="shape"/>
</filter>
<linearGradient id="paint0_linear_114_712" x1="52.2279" y1="12.7279" x2="12.2279" y2="67.7279" gradientUnits="userSpaceOnUse">
<stop stop-color="#FDC93F"/>
<stop offset="1" stop-color="#F8B032"/>
</linearGradient>
</defs>
</svg>
